<svg width="472" height="228" viewBox="0 0 472 228" fill="none" xmlns="http://www.w3.org/2000/svg">
<path d="M18.2284 102.633C90.3521 99.8501 130.789 98.2898 202.913 95.5068L208.93 75.8686L163.92 72.6726L55.7983 28.3474L70.4132 9.00062L151.755 45.2798L241.576 52.6363L247.204 75.8995L447.576 91.3872L463 126.118L402.362 202.128L380.29 207.509L341.656 179.834C313.341 179.394 255.3 179.431 249.654 183.101C244.008 186.77 211.308 208.563 195.663 219C176.944 206.508 136.45 181.705 124.229 182.432C108.952 183.342 57.8886 184.875 39.1811 177.352C-2.44165 145.206 7.86985 114.145 18.2284 102.633Z" stroke="#3D3D3D" stroke-width="18" stroke-linejoin="round"/>
<path d="M202.912 95.5068L208.93 75.8686L163.92 72.6726L55.7978 28.3474L70.4127 9.00062L151.754 45.2798L241.576 52.6363L247.203 75.8995L447.575 91.3872L463 126.118L402.362 202.128L380.29 207.509L341.656 179.834C313.341 179.394 255.299 179.431 249.653 183.101C244.007 186.77 211.307 208.563 195.663 219C176.943 206.508 136.449 181.705 124.228 182.433" stroke="url(#paint0_linear_1961_1965)" stroke-width="18" stroke-linejoin="round"/>
<path d="M202.913 95.5064L208.931 75.8682L163.92 72.6729L55.7988 28.347L70.4136 9.00025L151.755 45.2801L241.577 52.6366L247.204 75.8997L447.576 91.3875L463 126.118L402.362 202.128L380.291 207.509" stroke="url(#paint1_linear_1961_1965)" stroke-width="18" stroke-linejoin="round"/>
<path d="M203.094 95.5063L203.447 104.499C207.269 104.35 210.578 101.8 211.699 98.1433L203.094 95.5063ZM209.112 75.8681L217.717 78.505C218.521 75.8832 218.085 73.038 216.534 70.7768C214.982 68.5155 212.485 67.0849 209.749 66.8907L209.112 75.8681ZM164.102 72.6727L160.688 81.0001C161.573 81.363 162.51 81.5824 163.465 81.6501L164.102 72.6727ZM55.9805 28.3469L48.7991 22.9222C47.1163 25.1498 46.5627 28.0323 47.3003 30.7249C48.038 33.4175 49.9834 35.6152 52.5665 36.6742L55.9805 28.3469ZM70.5947 9.00011L74.2607 0.780608C70.4351 -0.925683 65.9381 0.232955 63.4132 3.57541L70.5947 9.00011ZM151.936 45.2799L148.27 53.4994C149.198 53.9132 150.189 54.167 151.202 54.2499L151.936 45.2799ZM241.758 52.6364L250.506 50.5203C249.593 46.7464 246.363 43.9834 242.493 43.6665L241.758 52.6364ZM247.386 75.8996L238.638 78.0157C239.555 81.8044 242.806 84.5724 246.692 84.8728L247.386 75.8996ZM62.2746 110.033L203.447 104.499L202.742 86.5132L61.5695 92.0472L62.2746 110.033ZM211.699 98.1433L217.717 78.505L200.507 73.2311L194.489 92.8693L211.699 98.1433ZM209.749 66.8907L164.739 63.6953L163.465 81.6501L208.475 84.8455L209.749 66.8907ZM167.516 64.3454L59.3944 20.0195L52.5665 36.6742L160.688 81.0001L167.516 64.3454ZM63.1619 33.7716L77.7761 14.4248L63.4132 3.57541L48.7991 22.9222L63.1619 33.7716ZM66.9286 17.2196L148.27 53.4994L155.602 37.0604L74.2607 0.780608L66.9286 17.2196ZM151.202 54.2499L241.024 61.6064L242.493 43.6665L152.671 36.31L151.202 54.2499ZM233.011 54.7526L238.638 78.0157L256.134 73.7835L250.506 50.5203L233.011 54.7526ZM246.692 84.8728L447.064 100.361L448.451 82.4141L248.08 66.9264L246.692 84.8728Z" fill="url(#paint2_linear_1961_1965)"/>
<path d="M55.6275 101.215L48.6533 101.481" stroke="white" stroke-width="18" stroke-linejoin="round"/>
<path d="M41.7261 101.721L34.752 101.987" stroke="white" stroke-width="18" stroke-linejoin="round"/>
<path d="M48.6771 101.468L41.7029 101.734" stroke="black" stroke-width="18" stroke-linejoin="round"/>
<path d="M48.6771 104.306L41.7029 104.573" stroke="white" stroke-width="9" stroke-linejoin="round"/>
<path d="M55.6275 104.054L48.6533 104.321" stroke="black" stroke-width="9" stroke-linejoin="round"/>
<path d="M41.7261 104.56L34.752 104.825" stroke="black" stroke-width="9" stroke-linejoin="round"/>
<path d="M438.262 91.7763C438.262 96.9378 442.453 101.122 447.623 101.122C452.792 101.122 456.983 96.9378 456.983 91.7763C456.983 86.6148 452.792 82.4305 447.623 82.4305C442.453 82.4305 438.262 86.6148 438.262 91.7763Z" fill="black" stroke="white" stroke-width="2"/>
<path d="M443.611 91.7762C443.611 93.9883 445.407 95.7815 447.623 95.7815C449.839 95.7815 451.635 93.9883 451.635 91.7762C451.635 89.5641 449.839 87.7709 447.623 87.7709C445.407 87.7709 443.611 89.5641 443.611 91.7762Z" fill="white"/>
<path d="M371.626 205.094C371.626 210.256 375.817 214.44 380.987 214.44C386.157 214.44 390.348 210.256 390.348 205.094C390.348 199.933 386.157 195.748 380.987 195.748C375.817 195.748 371.626 199.933 371.626 205.094Z" fill="black" stroke="white" stroke-width="2"/>
<path d="M376.975 205.094C376.975 207.306 378.772 209.099 380.987 209.099C383.203 209.099 384.999 207.306 384.999 205.094C384.999 202.882 383.203 201.089 380.987 201.089C378.772 201.089 376.975 202.882 376.975 205.094Z" fill="white"/>
<path d="M119.73 183.162C119.73 188.323 123.921 192.508 129.09 192.508C134.26 192.508 138.451 188.323 138.451 183.162C138.451 178 134.26 173.816 129.09 173.816C123.921 173.816 119.73 178 119.73 183.162Z" fill="black" stroke="white" stroke-width="2"/>
<path d="M125.079 183.162C125.079 185.374 126.875 187.167 129.091 187.167C131.306 187.167 133.103 185.374 133.103 183.162C133.103 180.95 131.306 179.156 129.091 179.156C126.875 179.156 125.079 180.95 125.079 183.162Z" fill="white"/>
<defs>
<linearGradient id="paint0_linear_1961_1965" x1="259.397" y1="8.99952" x2="259.397" y2="219.001" gradientUnits="userSpaceOnUse">
<stop offset="0.1974" stop-color="#BB8A4F"/>
<stop offset="0.4423" stop-color="#E9B471"/>
<stop offset="0.6898" stop-color="#E9B471"/>
<stop offset="1" stop-color="#E8C66C"/>
</linearGradient>
<linearGradient id="paint1_linear_1961_1965" x1="259.397" y1="8.99921" x2="259.397" y2="207.51" gradientUnits="userSpaceOnUse">
<stop offset="0.1974" stop-color="#BB8A4F"/>
<stop offset="0.4423" stop-color="#E9B471"/>
<stop offset="0.6898" stop-color="#E9B471"/>
<stop offset="1" stop-color="#E8C66C"/>
</linearGradient>
<linearGradient id="paint2_linear_1961_1965" x1="251.867" y1="8.99962" x2="251.867" y2="101.041" gradientUnits="userSpaceOnUse">
<stop offset="0.1974" stop-color="#BB8A4F"/>
<stop offset="0.4423" stop-color="#E9B471"/>
<stop offset="0.6898" stop-color="#E9B471"/>
<stop offset="1" stop-color="#E8C66C"/>
</linearGradient>
</defs>
</svg>
