<svg width="589" height="589" viewBox="0 0 589 589" fill="none" xmlns="http://www.w3.org/2000/svg">
<path d="M111.606 91.7217C177.885 153.053 215.045 187.439 281.324 248.77L304.105 236.636L267.127 193.977L210.878 58.9235L241.005 54.6547L280.715 158.864L353.637 244.865L337.937 270.523L501.43 461.552L484.203 506.071L362.99 519.995L338.681 505.252L329.104 446.473C304.446 421.032 253.066 369.718 244.809 367.985C236.552 366.253 188.252 356.696 165.134 352.134C159.678 324.468 145.903 266.598 134.445 256.432C120.122 243.726 73.5851 199.915 63.7222 176.678C55.4761 111.28 92.2091 92.7913 111.606 91.7217Z" stroke="url(#paint0_linear_1961_1986)" stroke-width="18" stroke-linejoin="round"/>
<path d="M281.324 248.77L304.104 236.636L267.127 193.977L210.878 58.9231L241.005 54.6544L280.715 158.864L353.637 244.865L337.936 270.523L501.43 461.552L484.202 506.07L362.99 519.994L338.681 505.251L329.104 446.472C304.446 421.031 253.066 369.717 244.809 367.985C236.552 366.252 188.252 356.696 165.133 352.133C159.678 324.468 145.902 266.597 134.444 256.432" stroke="url(#paint1_linear_1961_1986)" stroke-width="18" stroke-linejoin="round"/>
<path d="M281.324 248.769L304.105 236.636L267.126 193.977L210.878 58.9232L241.005 54.6544L280.715 158.865L353.637 244.866L337.936 270.524L501.43 461.553L484.202 506.07L362.989 519.994L338.681 505.252" stroke="url(#paint2_linear_1961_1986)" stroke-width="18" stroke-linejoin="round"/>
<path d="M281.486 248.93L275.378 255.54C278.189 258.138 282.338 258.674 285.717 256.874L281.486 248.93ZM304.267 236.797L308.498 244.741C310.916 243.453 312.616 241.134 313.116 238.44C313.616 235.747 312.862 232.972 311.068 230.902L304.267 236.797ZM267.289 194.138L258.98 197.598C259.35 198.485 259.859 199.307 260.488 200.033L267.289 194.138ZM211.04 59.0841L209.778 50.1731C207.02 50.564 204.598 52.2098 203.22 54.6302C201.841 57.0507 201.661 59.973 202.732 62.5444L211.04 59.0841ZM241.167 54.8148L249.577 51.6101C248.081 47.6828 244.065 45.3141 239.904 45.9038L241.167 54.8148ZM280.877 159.025L272.466 162.23C272.83 163.183 273.352 164.067 274.012 164.845L280.877 159.025ZM353.799 245.027L361.476 249.724C363.504 246.41 363.176 242.169 360.664 239.206L353.799 245.027ZM338.098 270.684L330.422 265.987C328.386 269.314 328.725 273.573 331.261 276.537L338.098 270.684ZM145.569 135.569L275.378 255.54L287.595 242.321L157.786 122.35L145.569 135.569ZM285.717 256.874L308.498 244.741L300.036 228.853L277.255 240.987L285.717 256.874ZM311.068 230.902L274.089 188.243L260.488 200.033L297.466 242.692L311.068 230.902ZM275.597 190.677L219.349 55.6238L202.732 62.5444L258.98 197.598L275.597 190.677ZM212.303 67.9951L242.43 63.7257L239.904 45.9038L209.778 50.1731L212.303 67.9951ZM232.757 58.0195L272.466 162.23L289.287 155.82L249.577 51.6101L232.757 58.0195ZM274.012 164.845L346.935 250.847L360.664 239.206L287.741 153.204L274.012 164.845ZM346.123 240.329L330.422 265.987L345.775 275.382L361.476 249.724L346.123 240.329ZM331.261 276.537L494.755 467.566L508.43 455.861L344.936 264.832L331.261 276.537Z" fill="url(#paint3_linear_1961_1986)"/>
<path d="M145.952 123.545L139.545 117.613" stroke="white" stroke-width="18" stroke-linejoin="round"/>
<path d="M133.207 111.696L126.8 105.764" stroke="white" stroke-width="18" stroke-linejoin="round"/>
<path d="M139.578 117.62L133.171 111.688" stroke="black" stroke-width="18" stroke-linejoin="round"/>
<path d="M137.056 120.144L130.648 114.211" stroke="white" stroke-width="9" stroke-linejoin="round"/>
<path d="M143.43 126.069L137.022 120.137" stroke="black" stroke-width="9" stroke-linejoin="round"/>
<path d="M130.684 114.219L124.276 108.287" stroke="black" stroke-width="9" stroke-linejoin="round"/>
<path d="M492.844 453.658C488.256 458.246 488.244 465.673 492.817 470.247C497.391 474.82 504.818 474.808 509.406 470.22C513.994 465.632 514.006 458.205 509.433 453.631C504.859 449.057 497.432 449.069 492.844 453.658Z" fill="black" stroke="white" stroke-width="2"/>
<path d="M497.576 458.39C495.61 460.356 495.605 463.539 497.565 465.499C499.525 467.46 502.708 467.454 504.675 465.488C506.641 463.522 506.646 460.339 504.686 458.378C502.726 456.418 499.543 456.424 497.576 458.39Z" fill="white"/>
<path d="M333.162 495.439C328.574 500.028 328.562 507.455 333.136 512.028C337.709 516.602 345.136 516.59 349.724 512.002C354.313 507.413 354.325 499.986 349.751 495.413C345.177 490.839 337.75 490.851 333.162 495.439Z" fill="black" stroke="white" stroke-width="2"/>
<path d="M337.895 500.172C335.928 502.138 335.923 505.321 337.883 507.281C339.844 509.241 343.027 509.236 344.993 507.27C346.959 505.303 346.964 502.12 345.004 500.16C343.044 498.2 339.861 498.205 337.895 500.172Z" fill="white"/>
<path d="M129.816 253.099C125.227 257.687 125.216 265.114 129.789 269.688C134.363 274.262 141.79 274.25 146.378 269.661C150.966 265.073 150.978 257.646 146.405 253.073C141.831 248.499 134.404 248.511 129.816 253.099Z" fill="black" stroke="white" stroke-width="2"/>
<path d="M134.548 257.831C132.582 259.798 132.577 262.981 134.537 264.941C136.497 266.901 139.68 266.896 141.647 264.929C143.613 262.963 143.618 259.78 141.658 257.82C139.698 255.86 136.515 255.865 134.548 257.831Z" fill="white"/>
<defs>
<linearGradient id="paint0_linear_1961_1986" x1="387.493" y1="201.14" x2="200.815" y2="387.817" gradientUnits="userSpaceOnUse">
<stop offset="0.1974" stop-color="#BB8A4F"/>
<stop offset="0.4423" stop-color="#E9B471"/>
<stop offset="0.6898" stop-color="#E9B471"/>
<stop offset="1" stop-color="#E8C66C"/>
</linearGradient>
<linearGradient id="paint1_linear_1961_1986" x1="408.193" y1="221.84" x2="221.516" y2="408.518" gradientUnits="userSpaceOnUse">
<stop offset="0.1974" stop-color="#BB8A4F"/>
<stop offset="0.4423" stop-color="#E9B471"/>
<stop offset="0.6898" stop-color="#E9B471"/>
<stop offset="1" stop-color="#E8C66C"/>
</linearGradient>
<linearGradient id="paint2_linear_1961_1986" x1="408.193" y1="221.84" x2="231.73" y2="398.303" gradientUnits="userSpaceOnUse">
<stop offset="0.1974" stop-color="#BB8A4F"/>
<stop offset="0.4423" stop-color="#E9B471"/>
<stop offset="0.6898" stop-color="#E9B471"/>
<stop offset="1" stop-color="#E8C66C"/>
</linearGradient>
<linearGradient id="paint3_linear_1961_1986" x1="401.532" y1="215.179" x2="319.714" y2="296.998" gradientUnits="userSpaceOnUse">
<stop offset="0.1974" stop-color="#BB8A4F"/>
<stop offset="0.4423" stop-color="#E9B471"/>
<stop offset="0.6898" stop-color="#E9B471"/>
<stop offset="1" stop-color="#E8C66C"/>
</linearGradient>
</defs>
</svg>
