<svg width="306" height="638" viewBox="0 0 306 638" fill="none" xmlns="http://www.w3.org/2000/svg">
<path d="M137.411 616.397C133.595 517.902 131.455 462.68 127.638 364.185L100.706 355.968L96.3227 417.435L35.5338 565.09L9.00117 545.132L58.7555 434.049L68.8444 311.385L100.748 303.7L121.988 30.0639L169.619 8.99994L273.862 91.8095L281.241 121.951L243.287 174.712C242.683 213.38 242.734 292.644 247.767 300.354C252.799 308.064 282.686 352.721 297 374.086C279.868 399.65 245.853 454.949 246.85 471.639C248.097 492.501 250.199 562.236 239.883 587.784C195.797 644.625 153.199 630.543 137.411 616.397Z" stroke="#3D3D3D" stroke-width="18" stroke-linejoin="round"/>
<path d="M127.638 364.186L100.706 355.968L96.3227 417.435L35.5338 565.091L9.00116 545.132L58.7554 434.049L68.8443 311.385L100.748 303.7L121.988 30.0641L169.619 9.00013L273.861 91.8097L281.241 121.952L243.287 174.712C242.683 213.38 242.734 292.644 247.767 300.354C252.799 308.064 282.686 352.721 297 374.086C279.868 399.65 245.853 454.95 246.85 471.639" stroke="#3D3D3D" stroke-width="18" stroke-linejoin="round"/>
<path d="M127.638 364.185L100.705 355.967L96.323 417.435L35.5333 565.09L9.00064 545.131L58.7558 434.048L68.8447 311.384L100.748 303.699L121.989 30.0631L169.619 9.00005L273.862 91.8096L281.241 121.951" stroke="#3D3D3D" stroke-width="18" stroke-linejoin="round"/>
<path d="M127.637 363.937L136.63 363.583C136.479 359.757 133.925 356.446 130.264 355.329L127.637 363.937ZM100.704 355.718L103.331 347.11C100.711 346.31 97.8686 346.748 95.6099 348.299C93.3513 349.85 91.9221 352.345 91.7273 355.078L100.704 355.718ZM96.3223 417.186L104.645 420.612C105.01 419.724 105.231 418.784 105.3 417.826L96.3223 417.186ZM35.5326 564.841L30.1225 572.033C32.3492 573.708 35.226 574.257 37.913 573.52C40.6 572.783 42.7942 570.844 43.8549 568.267L35.5326 564.841ZM8.99993 544.883L0.786211 541.204C-0.931074 545.038 0.232545 549.55 3.58983 552.076L8.99993 544.883ZM58.7551 433.8L66.9688 437.479C67.3856 436.548 67.6412 435.554 67.7248 434.538L58.7551 433.8ZM68.844 311.135L66.7363 302.385C62.9595 303.295 60.1927 306.526 59.8743 310.397L68.844 311.135ZM100.748 303.45L102.855 312.2C106.647 311.286 109.419 308.035 109.721 304.147L100.748 303.45ZM144.219 556.373L136.63 363.583L118.644 364.291L126.233 557.081L144.219 556.373ZM130.264 355.329L103.331 347.11L98.0777 364.326L125.01 372.545L130.264 355.329ZM91.7273 355.078L87.3451 416.546L105.3 417.826L109.682 356.358L91.7273 355.078ZM88 413.76L27.2103 561.415L43.8549 568.267L104.645 420.612L88 413.76ZM40.9427 557.648L14.41 537.691L3.58983 552.076L30.1225 572.033L40.9427 557.648ZM17.2136 548.562L66.9688 437.479L50.5414 430.121L0.786211 541.204L17.2136 548.562ZM67.7248 434.538L77.8137 311.873L59.8743 310.397L49.7854 433.062L67.7248 434.538ZM70.9517 319.885L102.855 312.2L98.64 294.7L66.7363 302.385L70.9517 319.885ZM109.721 304.147L130.961 30.5109L113.015 29.1179L91.7747 302.754L109.721 304.147Z" fill="url(#paint0_linear_1961_1728)"/>
<path d="M135.466 565.324L135.832 574.848" stroke="white" stroke-width="18" stroke-linejoin="round"/>
<path d="M136.158 584.308L136.524 593.833" stroke="white" stroke-width="18" stroke-linejoin="round"/>
<path d="M135.813 574.816L136.178 584.341" stroke="black" stroke-width="18" stroke-linejoin="round"/>
<path d="M139.706 574.816L140.072 584.341" stroke="white" stroke-width="9" stroke-linejoin="round"/>
<path d="M139.359 565.324L139.725 574.848" stroke="black" stroke-width="9" stroke-linejoin="round"/>
<path d="M140.052 584.308L140.418 593.833" stroke="black" stroke-width="9" stroke-linejoin="round"/>
<path d="M122.523 42.785C129.602 42.785 135.34 37.0617 135.34 30.0015C135.34 22.9414 129.602 17.218 122.523 17.218C115.444 17.218 109.706 22.9414 109.706 30.0015C109.706 37.0617 115.444 42.785 122.523 42.785Z" fill="black" stroke="white" stroke-width="2"/>
<path d="M122.523 35.4798C125.557 35.4798 128.016 33.0269 128.016 30.0011C128.016 26.9753 125.557 24.5225 122.523 24.5225C119.49 24.5225 117.03 26.9753 117.03 30.0011C117.03 33.0269 119.49 35.4798 122.523 35.4798Z" fill="white"/>
<defs>
<linearGradient id="paint0_linear_1961_1728" x1="8.99929" y1="297.33" x2="135.227" y2="297.33" gradientUnits="userSpaceOnUse">
<stop offset="0.1974" stop-color="#BB8A4F"/>
<stop offset="0.4423" stop-color="#E9B471"/>
<stop offset="0.6898" stop-color="#E9B471"/>
<stop offset="1" stop-color="#E8C66C"/>
</linearGradient>
</defs>
</svg>
