<svg width="499" height="608" viewBox="0 0 499 608" fill="none" xmlns="http://www.w3.org/2000/svg">
<path d="M104.779 527.319C145.846 449.404 168.87 405.72 209.937 327.805L192.876 309.476L162.04 355.093L49.2763 442.337L37.7684 415.1L125.698 351.253L188.268 260.815L216.261 269.048L354.865 66.739L400.942 71.6079L444.191 182.019L436.404 208.624L383.616 232.583C365.875 262.237 330.501 323.597 330.93 331.8C331.36 340.004 334.416 387.843 335.889 410.738C311.279 422.906 260.388 450.581 253.699 463.94C245.338 480.638 215.801 535.535 196.446 550.72C137.112 575.112 110.612 545.283 104.779 527.319Z" stroke="#3D3D3D" stroke-width="18" stroke-linejoin="round"/>
<path d="M209.937 327.805L192.876 309.476L162.04 355.093L49.2763 442.337L37.7684 415.1L125.698 351.253L188.268 260.816L216.261 269.048L354.865 66.7392L400.942 71.6081L444.191 182.019L436.404 208.624L383.616 232.583C365.875 262.238 330.501 323.597 330.93 331.801C331.36 340.004 334.416 387.844 335.889 410.738C311.279 422.906 260.388 450.581 253.699 463.94" stroke="#3D3D3D" stroke-width="18" stroke-linejoin="round"/>
<path d="M209.936 327.805L192.875 309.475L162.039 355.093L49.2752 442.336L37.7673 415.1L125.698 351.253L188.267 260.815L216.26 269.047L354.865 66.7386L400.941 71.6082L444.19 182.019L436.404 208.623" stroke="url(#paint0_linear_1961_1944)" stroke-width="18" stroke-linejoin="round"/>
<path d="M210.047 327.612L218.012 331.804C219.793 328.42 219.241 324.279 216.635 321.48L210.047 327.612ZM192.987 309.282L199.574 303.151C197.706 301.143 195.024 300.097 192.289 300.309C189.555 300.522 187.066 301.97 185.53 304.242L192.987 309.282ZM162.151 354.901L167.658 362.019C168.414 361.434 169.072 360.733 169.607 359.941L162.151 354.901ZM49.3866 442.144L41.0963 445.647C42.1834 448.219 44.4035 450.142 47.1054 450.85C49.8073 451.558 52.6848 450.971 54.8939 449.262L49.3866 442.144ZM37.8784 414.907L32.5904 407.625C29.2031 410.084 27.9588 414.554 29.588 418.41L37.8784 414.907ZM125.809 351.061L131.097 358.343C131.918 357.747 132.633 357.016 133.21 356.181L125.809 351.061ZM188.379 260.622L190.918 251.988C187.194 250.893 183.186 252.309 180.978 255.502L188.379 260.622ZM216.372 268.855L213.833 277.489C217.572 278.589 221.594 277.157 223.797 273.941L216.372 268.855ZM137.72 484.365L218.012 331.804L202.083 323.42L121.792 475.981L137.72 484.365ZM216.635 321.48L199.574 303.151L186.399 315.414L203.459 333.744L216.635 321.48ZM185.53 304.242L154.695 349.861L169.607 359.941L200.443 314.322L185.53 304.242ZM156.644 347.782L43.8794 435.025L54.8939 449.262L167.658 362.019L156.644 347.782ZM57.677 438.641L46.1687 411.404L29.588 418.41L41.0963 445.647L57.677 438.641ZM43.1663 422.19L131.097 358.343L120.521 343.778L32.5904 407.625L43.1663 422.19ZM133.21 356.181L195.78 265.743L180.978 255.502L118.408 345.94L133.21 356.181ZM185.84 269.257L213.833 277.489L218.911 260.22L190.918 251.988L185.84 269.257ZM223.797 273.941L362.401 71.6325L347.551 61.4591L208.947 263.768L223.797 273.941Z" fill="url(#paint1_linear_1961_1944)"/>
<path d="M126.098 486.932L122.125 494.465" stroke="white" stroke-width="18" stroke-linejoin="round"/>
<path d="M118.149 501.93L114.177 509.463" stroke="white" stroke-width="18" stroke-linejoin="round"/>
<path d="M122.124 494.431L118.151 501.964" stroke="black" stroke-width="18" stroke-linejoin="round"/>
<path d="M125.12 496.161L121.147 503.694" stroke="white" stroke-width="9" stroke-linejoin="round"/>
<path d="M129.095 488.662L125.122 496.195" stroke="black" stroke-width="9" stroke-linejoin="round"/>
<path d="M121.147 503.661L117.174 511.194" stroke="black" stroke-width="9" stroke-linejoin="round"/>
<path d="M349.593 76.8202C355.042 79.9663 362.016 78.0877 365.17 72.6243C368.325 67.161 366.464 60.1816 361.015 57.0356C355.566 53.8895 348.592 55.7681 345.437 61.2314C342.283 66.6948 344.143 73.6742 349.593 76.8202Z" fill="black" stroke="white" stroke-width="2"/>
<path d="M352.856 71.1676C355.191 72.5159 358.18 71.7108 359.532 69.3693C360.884 67.0279 360.086 64.0367 357.751 62.6884C355.416 61.3401 352.427 62.1452 351.075 64.4866C349.723 66.8281 350.52 69.8192 352.856 71.1676Z" fill="white"/>
<path d="M349.593 76.8202C355.042 79.9663 362.016 78.0877 365.17 72.6243C368.325 67.161 366.464 60.1816 361.015 57.0356C355.566 53.8895 348.592 55.7681 345.437 61.2314C342.283 66.6948 344.143 73.6742 349.593 76.8202Z" fill="black" stroke="white" stroke-width="2"/>
<path d="M352.856 71.1676C355.191 72.5159 358.18 71.7108 359.532 69.3693C360.884 67.0279 360.086 64.0367 357.751 62.6884C355.416 61.3401 352.427 62.1452 351.075 64.4866C349.723 66.8281 350.52 69.8192 352.856 71.1676Z" fill="white"/>
<path d="M429.697 216.032C435.146 219.178 442.121 217.3 445.275 211.836C448.429 206.373 446.569 199.394 441.12 196.248C435.671 193.102 428.696 194.98 425.542 200.443C422.388 205.907 424.248 212.886 429.697 216.032Z" fill="black" stroke="white" stroke-width="2"/>
<path d="M432.96 210.38C435.296 211.728 438.285 210.923 439.637 208.581C440.988 206.24 440.191 203.249 437.856 201.901C435.52 200.552 432.531 201.357 431.179 203.699C429.828 206.04 430.625 209.031 432.96 210.38Z" fill="white"/>
<defs>
<linearGradient id="paint0_linear_1961_1944" x1="153.071" y1="215.385" x2="362.644" y2="336.382" gradientUnits="userSpaceOnUse">
<stop offset="0.1974" stop-color="#BB8A4F"/>
<stop offset="0.4423" stop-color="#E9B471"/>
<stop offset="0.6898" stop-color="#E9B471"/>
<stop offset="1" stop-color="#E8C66C"/>
</linearGradient>
<linearGradient id="paint1_linear_1961_1944" x1="148.478" y1="223.342" x2="245.648" y2="279.443" gradientUnits="userSpaceOnUse">
<stop offset="0.1974" stop-color="#BB8A4F"/>
<stop offset="0.4423" stop-color="#E9B471"/>
<stop offset="0.6898" stop-color="#E9B471"/>
<stop offset="1" stop-color="#E8C66C"/>
</linearGradient>
</defs>
</svg>
