<svg width="80" height="80" viewBox="0 0 80 80" fill="none" xmlns="http://www.w3.org/2000/svg">
<rect width="80" height="80" fill="white"/>
<path d="M60.2772 58.7432C59.4911 58.3584 58.7089 57.9654 57.9273 57.5718C57.4227 57.3184 56.9181 57.0642 56.4121 56.8126C55.3575 56.2883 54.301 55.7658 53.2451 55.2433C52.4701 54.8603 51.6956 54.4766 50.9212 54.093C49.6175 53.4465 48.3151 52.7989 47.0134 52.1487C46.184 51.7341 45.3546 51.3188 44.5258 50.9029C43.4473 50.3625 42.3694 49.822 41.2902 49.2841C38.3426 47.8145 35.3943 46.3463 32.4441 44.8811C31.3138 44.3196 30.1822 43.7605 29.0513 43.2008C27.4093 42.3889 25.7672 41.5764 24.1278 40.7589C22.1907 39.7926 20.1818 38.778 18.1561 37.7424C16.9262 37.1139 16.6435 36.5859 16.8395 35.2874C16.9948 34.2567 17.1863 33.0351 17.4283 31.785C17.7621 30.0595 18.4246 28.3415 19.5128 26.378C20.8482 23.9676 22.6132 21.8777 24.7573 20.1646C27.0198 18.3579 29.4777 17.0161 32.0623 16.1769C34.4193 15.4115 36.925 15.016 39.5091 15.0005C41.2689 14.9869 43.0882 15.2268 45.2595 15.7449C47.4411 16.2655 49.5295 17.1308 51.4666 18.3164C53.4884 19.5535 55.2294 21.0001 56.6411 22.6146C58.0056 24.1759 59.0602 25.7346 59.8644 27.3783C59.9932 27.6417 60.1433 27.9008 60.3024 28.1754C60.5399 28.5857 60.7857 29.0096 60.974 29.4763C61.2075 30.0546 61.0814 30.7667 60.853 31.2154C60.5114 31.8879 59.7615 32.1891 58.8493 32.023C56.2866 31.5551 53.7226 31.0939 51.158 30.6328L38.7884 28.4041C38.637 28.3768 38.5341 28.37 38.4681 28.37C38.3976 28.37 38.3711 28.378 38.3691 28.3762C38.3607 28.3855 38.2889 28.4716 38.2274 28.7865L37.8179 30.872C37.6264 31.8457 37.4349 32.8188 37.2447 33.7925C37.1987 34.028 37.224 34.0925 37.224 34.0925C37.2246 34.0931 37.2615 34.1563 37.4957 34.279C38.5199 34.8164 39.5447 35.3525 40.5695 35.8886C41.8175 36.5412 43.0649 37.1945 44.3116 37.849C45.1462 38.2866 45.9795 38.726 46.8135 39.1654C47.839 39.7059 48.8638 40.2463 49.8912 40.7837C50.7187 41.2169 51.5934 41.6644 52.5645 42.1522C52.7301 42.2352 52.7813 42.2191 52.8958 42.1478C54.2221 41.3291 55.5795 40.5128 56.8915 39.7232L57.6925 39.2417C58.025 39.0415 58.3589 38.8444 58.6934 38.6479C59.2511 38.3194 59.8275 37.9798 60.3794 37.6333C61.0613 37.205 61.8196 37.1251 62.4601 37.4151C63.0915 37.7002 63.5037 38.2965 63.5897 39.0514C63.9372 42.079 64.0562 44.407 63.976 46.5991C63.9164 48.2205 63.844 49.5468 63.7469 50.7734C63.6641 51.8227 63.5373 52.9538 63.3484 54.3328C63.2261 55.2216 63.0689 56.1141 62.9169 56.9775L62.8218 57.5173C62.7344 58.0162 62.3728 58.4637 61.8552 58.7135C61.586 58.843 61.2968 58.9081 61.0147 58.9081C60.7559 58.9081 60.503 58.8536 60.2772 58.7432ZM61.2832 38.9535C60.712 39.3123 60.1245 39.6581 59.5571 39.9928C59.2271 40.1868 58.8978 40.3814 58.5704 40.5785L57.7688 41.0607C56.4606 41.8479 55.1078 42.6616 53.7893 43.4754C53.1617 43.8634 52.4739 43.8894 51.8004 43.551C50.8209 43.0595 49.9378 42.6077 49.1019 42.1701C48.0732 41.6322 47.0464 41.0905 46.0197 40.5494C45.187 40.1106 44.3543 39.6712 43.5204 39.2342C42.2743 38.5803 41.0269 37.9277 39.7795 37.2751C38.7541 36.7383 37.7292 36.2022 36.7044 35.6649C35.7624 35.1709 35.4292 34.504 35.6253 33.503C35.8155 32.5287 36.007 31.5551 36.1985 30.5808L36.608 28.4964C36.6921 28.0675 36.8681 27.4552 37.4252 27.0845C37.988 26.7102 38.6467 26.7734 39.0937 26.854L49.9378 28.8063L49.9371 28.8075L51.4627 29.0821C54.0286 29.5432 56.5939 30.005 59.1586 30.4729C59.2718 30.4934 59.3488 30.4909 59.3895 30.4859C59.4529 30.3316 59.4652 30.1178 59.4374 30.0459C59.2899 29.6808 59.0822 29.3213 58.8616 28.9414C58.696 28.6557 58.5252 28.3601 58.3725 28.0483C57.6297 26.5292 56.6502 25.0839 55.3782 23.6286C54.0746 22.1374 52.4604 20.7974 50.5802 19.6471C48.7939 18.5538 46.8698 17.7567 44.8616 17.2776C42.8275 16.7917 41.1337 16.5767 39.5194 16.5798C37.112 16.594 34.781 16.9616 32.5909 17.6725C30.199 18.449 27.9184 19.6954 25.8119 21.3775C23.8321 22.958 22.2023 24.8899 20.9679 27.118C19.9606 28.9358 19.3505 30.5107 19.0483 32.0732C18.8122 33.296 18.6233 34.4984 18.4706 35.5143C18.4117 35.9029 18.422 36.0212 18.4246 36.0405C18.4492 36.0714 18.5476 36.1539 18.9325 36.351C20.953 37.3841 22.9567 38.3969 24.8886 39.36C26.5261 40.1769 28.1662 40.9882 29.807 41.7995C30.9392 42.3598 32.0708 42.9195 33.2023 43.481C36.1532 44.9468 39.1021 46.4151 42.0511 47.8852C43.1315 48.4238 44.2107 48.9649 45.2899 49.5053C46.1186 49.9206 46.9468 50.3358 47.7756 50.7499C49.0754 51.3994 50.3771 52.0458 51.6788 52.6916C52.4526 53.0753 53.227 53.4589 54.0008 53.8413C55.058 54.3644 56.1145 54.8869 57.1704 55.4119C57.6783 55.6648 58.1855 55.9195 58.6927 56.1742C59.4691 56.5647 60.2455 56.9552 61.007 57.3301C61.0581 57.3369 61.1771 57.2805 61.1959 57.2558L61.291 56.7134C61.4411 55.8643 61.5957 54.9867 61.7135 54.1264C61.8985 52.7772 62.0221 51.674 62.103 50.6538C62.1981 49.4495 62.2699 48.143 62.3281 46.5434C62.4051 44.4299 62.2893 42.1726 61.9509 39.2231C61.9289 39.0297 61.8558 38.8878 61.7562 38.8425C61.7271 38.8295 61.6921 38.8227 61.6533 38.8227C61.5511 38.8227 61.4178 38.8685 61.2832 38.9535Z" fill="url(#paint0_linear_870_198)"/>
<path d="M59.6813 64.9858L16.6571 56.8839C16.2197 56.8015 15.9318 56.3794 16.014 55.9412L18.3645 43.4159C18.4111 43.1662 18.5728 42.953 18.7999 42.8408C19.0276 42.7286 19.2942 42.7298 19.5206 42.8445L60.1944 63.4722C60.5522 63.6538 60.7223 64.0716 60.5936 64.4521C60.481 64.7843 60.1705 65 59.8308 65C59.7816 65 59.7318 64.9957 59.6813 64.9858ZM17.7473 55.446L54.4149 62.3511L19.7503 44.7714L17.7473 55.446Z" fill="url(#paint1_linear_870_198)"/>
<defs>
<linearGradient id="paint0_linear_870_198" x1="64.0001" y1="36.954" x2="16.783" y2="36.954" gradientUnits="userSpaceOnUse">
<stop offset="0.1974" stop-color="#BB8A4F"/>
<stop offset="0.4423" stop-color="#E9B471"/>
<stop offset="0.6898" stop-color="#E9B471"/>
<stop offset="1" stop-color="#E8C66C"/>
</linearGradient>
<linearGradient id="paint1_linear_870_198" x1="60.6366" y1="53.8787" x2="15.9998" y2="53.8787" gradientUnits="userSpaceOnUse">
<stop offset="0.1974" stop-color="#BB8A4F"/>
<stop offset="0.4423" stop-color="#E9B471"/>
<stop offset="0.6898" stop-color="#E9B471"/>
<stop offset="1" stop-color="#E8C66C"/>
</linearGradient>
</defs>
</svg>
