<svg width="1014" height="189" viewBox="0 0 1014 189" fill="none" xmlns="http://www.w3.org/2000/svg">
<path d="M760.11 189L1013.59 189L1013.59 1.52588e-05L760.11 -6.91669e-06L760.11 189Z" fill="white"/>
<path d="M997.747 189L1013.59 189L1013.59 173.251L997.747 173.251L997.747 189Z" fill="black"/>
<path d="M966.054 189L981.9 189L981.9 173.251L966.054 173.251L966.054 189Z" fill="black"/>
<path d="M934.363 189L950.209 189L950.209 173.251L934.363 173.251L934.363 189Z" fill="black"/>
<path d="M902.67 189L918.516 189L918.516 173.251L902.67 173.251L902.67 189Z" fill="black"/>
<path d="M870.978 189L886.823 189L886.823 173.251L870.978 173.251L870.978 189Z" fill="black"/>
<path d="M839.286 189L855.132 189L855.132 173.251L839.286 173.251L839.286 189Z" fill="black"/>
<path d="M807.594 189L823.439 189L823.439 173.251L807.594 173.251L807.594 189Z" fill="black"/>
<path d="M775.901 189L791.747 189L791.747 173.251L775.901 173.251L775.901 189Z" fill="black"/>
<path d="M981.901 173.251L997.747 173.251L997.747 157.501L981.901 157.501L981.901 173.251Z" fill="black"/>
<path d="M950.209 173.251L966.054 173.251L966.054 157.501L950.209 157.501L950.209 173.251Z" fill="black"/>
<path d="M918.516 173.251L934.361 173.251L934.361 157.501L918.516 157.501L918.516 173.251Z" fill="black"/>
<path d="M886.825 173.251L902.67 173.251L902.67 157.501L886.825 157.501L886.825 173.251Z" fill="black"/>
<path d="M855.132 173.251L870.978 173.251L870.978 157.501L855.132 157.501L855.132 173.251Z" fill="black"/>
<path d="M823.439 173.251L839.285 173.251L839.285 157.501L823.439 157.501L823.439 173.251Z" fill="black"/>
<path d="M791.748 173.251L807.594 173.251L807.594 157.501L791.748 157.501L791.748 173.251Z" fill="black"/>
<path d="M760.056 173.251L775.901 173.251L775.901 157.501L760.056 157.501L760.056 173.251Z" fill="black"/>
<path d="M997.747 157.499L1013.59 157.499L1013.59 141.75L997.747 141.75L997.747 157.499Z" fill="black"/>
<path d="M966.054 157.499L981.9 157.499L981.9 141.75L966.054 141.75L966.054 157.499Z" fill="black"/>
<path d="M934.363 157.499L950.209 157.499L950.209 141.75L934.363 141.75L934.363 157.499Z" fill="black"/>
<path d="M902.67 157.499L918.516 157.499L918.516 141.75L902.67 141.75L902.67 157.499Z" fill="black"/>
<path d="M870.978 157.499L886.823 157.499L886.823 141.75L870.978 141.75L870.978 157.499Z" fill="black"/>
<path d="M839.286 157.499L855.132 157.499L855.132 141.75L839.286 141.75L839.286 157.499Z" fill="black"/>
<path d="M807.594 157.499L823.439 157.499L823.439 141.75L807.594 141.75L807.594 157.499Z" fill="black"/>
<path d="M775.901 157.499L791.747 157.499L791.747 141.75L775.901 141.75L775.901 157.499Z" fill="black"/>
<path d="M981.901 141.75L997.747 141.75L997.747 126.001L981.901 126.001L981.901 141.75Z" fill="black"/>
<path d="M950.209 141.75L966.054 141.75L966.054 126.001L950.209 126.001L950.209 141.75Z" fill="black"/>
<path d="M918.516 141.75L934.361 141.75L934.361 126.001L918.516 126.001L918.516 141.75Z" fill="black"/>
<path d="M886.825 141.75L902.67 141.75L902.67 126.001L886.825 126.001L886.825 141.75Z" fill="black"/>
<path d="M855.132 141.75L870.978 141.75L870.978 126.001L855.132 126.001L855.132 141.75Z" fill="black"/>
<path d="M823.439 141.75L839.285 141.75L839.285 126.001L823.439 126.001L823.439 141.75Z" fill="black"/>
<path d="M791.748 141.75L807.594 141.75L807.594 126.001L791.748 126.001L791.748 141.75Z" fill="black"/>
<path d="M760.056 141.75L775.901 141.75L775.901 126.001L760.056 126.001L760.056 141.75Z" fill="black"/>
<path d="M997.747 126.001L1013.59 126.001L1013.59 110.251L997.747 110.251L997.747 126.001Z" fill="black"/>
<path d="M966.054 126.001L981.9 126.001L981.9 110.251L966.054 110.251L966.054 126.001Z" fill="black"/>
<path d="M934.363 126.001L950.209 126.001L950.209 110.251L934.363 110.251L934.363 126.001Z" fill="black"/>
<path d="M902.67 126.001L918.516 126.001L918.516 110.251L902.67 110.251L902.67 126.001Z" fill="black"/>
<path d="M870.978 126.001L886.823 126.001L886.823 110.251L870.978 110.251L870.978 126.001Z" fill="black"/>
<path d="M839.286 126.001L855.132 126.001L855.132 110.251L839.286 110.251L839.286 126.001Z" fill="black"/>
<path d="M807.594 126.001L823.439 126.001L823.439 110.251L807.594 110.251L807.594 126.001Z" fill="black"/>
<path d="M775.901 126.001L791.747 126.001L791.747 110.251L775.901 110.251L775.901 126.001Z" fill="black"/>
<path d="M981.901 110.249L997.747 110.249L997.747 94.5L981.901 94.5L981.901 110.249Z" fill="black"/>
<path d="M950.209 110.249L966.054 110.249L966.054 94.5L950.209 94.5L950.209 110.249Z" fill="black"/>
<path d="M918.516 110.249L934.361 110.249L934.361 94.5L918.516 94.5L918.516 110.249Z" fill="black"/>
<path d="M886.825 110.249L902.67 110.249L902.67 94.5L886.825 94.5L886.825 110.249Z" fill="black"/>
<path d="M855.132 110.249L870.978 110.249L870.978 94.5L855.132 94.5L855.132 110.249Z" fill="black"/>
<path d="M823.439 110.249L839.285 110.249L839.285 94.5L823.439 94.5L823.439 110.249Z" fill="black"/>
<path d="M791.748 110.249L807.594 110.249L807.594 94.5L791.748 94.5L791.748 110.249Z" fill="black"/>
<path d="M760.056 110.249L775.901 110.249L775.901 94.5L760.056 94.5L760.056 110.249Z" fill="black"/>
<path d="M997.747 94.5L1013.59 94.5L1013.59 78.7506L997.747 78.7506L997.747 94.5Z" fill="black"/>
<path d="M966.054 94.5L981.9 94.5L981.9 78.7506L966.054 78.7506L966.054 94.5Z" fill="black"/>
<path d="M934.363 94.5L950.209 94.5L950.209 78.7506L934.363 78.7506L934.363 94.5Z" fill="black"/>
<path d="M902.67 94.5L918.516 94.5L918.516 78.7505L902.67 78.7505L902.67 94.5Z" fill="black"/>
<path d="M870.978 94.5L886.823 94.5L886.823 78.7505L870.978 78.7505L870.978 94.5Z" fill="black"/>
<path d="M839.286 94.5L855.132 94.5L855.132 78.7505L839.286 78.7505L839.286 94.5Z" fill="black"/>
<path d="M807.594 94.5L823.439 94.5L823.439 78.7505L807.594 78.7505L807.594 94.5Z" fill="black"/>
<path d="M775.901 94.5L791.747 94.5L791.747 78.7505L775.901 78.7505L775.901 94.5Z" fill="black"/>
<path d="M981.901 78.7506L997.747 78.7506L997.747 63.0011L981.901 63.0011L981.901 78.7506Z" fill="black"/>
<path d="M950.209 78.7506L966.054 78.7506L966.054 63.0011L950.209 63.0011L950.209 78.7506Z" fill="black"/>
<path d="M918.516 78.7505L934.361 78.7506L934.361 63.0011L918.516 63.0011L918.516 78.7505Z" fill="black"/>
<path d="M886.825 78.7505L902.67 78.7505L902.67 63.0011L886.825 63.0011L886.825 78.7505Z" fill="black"/>
<path d="M855.132 78.7505L870.978 78.7505L870.978 63.0011L855.132 63.0011L855.132 78.7505Z" fill="black"/>
<path d="M823.439 78.7505L839.285 78.7505L839.285 63.0011L823.439 63.0011L823.439 78.7505Z" fill="black"/>
<path d="M791.748 78.7505L807.594 78.7505L807.594 63.0011L791.748 63.0011L791.748 78.7505Z" fill="black"/>
<path d="M760.056 78.7505L775.901 78.7505L775.901 63.0011L760.056 63.0011L760.056 78.7505Z" fill="black"/>
<path d="M997.747 62.9995L1013.59 62.9995L1013.59 47.25L997.747 47.25L997.747 62.9995Z" fill="black"/>
<path d="M966.054 62.9995L981.9 62.9995L981.9 47.25L966.054 47.25L966.054 62.9995Z" fill="black"/>
<path d="M934.363 62.9995L950.209 62.9995L950.209 47.25L934.363 47.25L934.363 62.9995Z" fill="black"/>
<path d="M902.67 62.9995L918.516 62.9995L918.516 47.25L902.67 47.25L902.67 62.9995Z" fill="black"/>
<path d="M870.978 62.9995L886.823 62.9995L886.823 47.25L870.978 47.25L870.978 62.9995Z" fill="black"/>
<path d="M839.286 62.9995L855.132 62.9995L855.132 47.25L839.286 47.25L839.286 62.9995Z" fill="black"/>
<path d="M807.594 62.9994L823.439 62.9994L823.439 47.25L807.594 47.25L807.594 62.9994Z" fill="black"/>
<path d="M775.901 62.9994L791.747 62.9994L791.747 47.25L775.901 47.25L775.901 62.9994Z" fill="black"/>
<path d="M981.901 47.25L997.747 47.25L997.747 31.5005L981.901 31.5005L981.901 47.25Z" fill="black"/>
<path d="M950.209 47.25L966.054 47.25L966.054 31.5005L950.209 31.5005L950.209 47.25Z" fill="black"/>
<path d="M918.516 47.25L934.361 47.25L934.361 31.5005L918.516 31.5005L918.516 47.25Z" fill="black"/>
<path d="M886.825 47.25L902.67 47.25L902.67 31.5005L886.825 31.5005L886.825 47.25Z" fill="black"/>
<path d="M855.132 47.25L870.978 47.25L870.978 31.5005L855.132 31.5005L855.132 47.25Z" fill="black"/>
<path d="M823.439 47.25L839.285 47.25L839.285 31.5005L823.439 31.5005L823.439 47.25Z" fill="black"/>
<path d="M791.748 47.25L807.594 47.25L807.594 31.5005L791.748 31.5005L791.748 47.25Z" fill="black"/>
<path d="M760.056 47.25L775.901 47.25L775.901 31.5005L760.056 31.5005L760.056 47.25Z" fill="black"/>
<path d="M997.747 31.5005L1013.59 31.5005L1013.59 15.7511L997.747 15.7511L997.747 31.5005Z" fill="black"/>
<path d="M966.054 31.5005L981.9 31.5005L981.9 15.7511L966.054 15.7511L966.054 31.5005Z" fill="black"/>
<path d="M934.363 31.5005L950.209 31.5005L950.209 15.7511L934.363 15.7511L934.363 31.5005Z" fill="black"/>
<path d="M902.67 31.5005L918.516 31.5005L918.516 15.7511L902.67 15.7511L902.67 31.5005Z" fill="black"/>
<path d="M870.978 31.5005L886.823 31.5005L886.823 15.7511L870.978 15.7511L870.978 31.5005Z" fill="black"/>
<path d="M839.286 31.5005L855.132 31.5005L855.132 15.7511L839.286 15.7511L839.286 31.5005Z" fill="black"/>
<path d="M807.594 31.5005L823.439 31.5005L823.439 15.7511L807.594 15.7511L807.594 31.5005Z" fill="black"/>
<path d="M775.901 31.5005L791.747 31.5005L791.747 15.7511L775.901 15.7511L775.901 31.5005Z" fill="black"/>
<path d="M981.901 15.7495L997.747 15.7495L997.747 1.38726e-05L981.901 1.24863e-05L981.901 15.7495Z" fill="black"/>
<path d="M950.209 15.7495L966.054 15.7495L966.054 1.11e-05L950.209 9.71376e-06L950.209 15.7495Z" fill="black"/>
<path d="M918.516 15.7495L934.361 15.7495L934.361 8.32739e-06L918.516 6.94117e-06L918.516 15.7495Z" fill="black"/>
<path d="M886.825 15.7495L902.67 15.7495L902.67 5.55494e-06L886.825 4.16872e-06L886.825 15.7495Z" fill="black"/>
<path d="M855.132 15.7495L870.978 15.7495L870.978 2.78235e-06L855.132 1.39613e-06L855.132 15.7495Z" fill="black"/>
<path d="M823.439 15.7494L839.285 15.7495L839.285 9.76453e-09L823.439 -1.37646e-06L823.439 15.7494Z" fill="black"/>
<path d="M791.748 15.7494L807.594 15.7494L807.594 -2.76268e-06L791.748 -4.1489e-06L791.748 15.7494Z" fill="black"/>
<path d="M760.056 15.7494L775.901 15.7494L775.901 -5.53527e-06L760.056 -6.92149e-06L760.056 15.7494Z" fill="black"/>
<path d="M506.574 189L760.056 189L760.056 -6.92149e-06L506.574 -2.9097e-05L506.574 189Z" fill="white"/>
<path d="M744.21 189L760.056 189L760.056 173.251L744.21 173.251L744.21 189Z" fill="black"/>
<path d="M712.517 189L728.363 189L728.363 173.251L712.517 173.251L712.517 189Z" fill="black"/>
<path d="M680.826 189L696.672 189L696.672 173.251L680.826 173.251L680.826 189Z" fill="black"/>
<path d="M649.134 189L664.979 189L664.979 173.251L649.134 173.251L649.134 189Z" fill="black"/>
<path d="M617.441 189L633.286 189L633.286 173.251L617.441 173.251L617.441 189Z" fill="black"/>
<path d="M585.75 189L601.595 189L601.595 173.251L585.75 173.251L585.75 189Z" fill="black"/>
<path d="M554.057 189L569.903 189L569.903 173.251L554.057 173.251L554.057 189Z" fill="black"/>
<path d="M522.364 189L538.21 189L538.21 173.251L522.364 173.251L522.364 189Z" fill="black"/>
<path d="M728.365 173.251L744.21 173.251L744.21 157.501L728.365 157.501L728.365 173.251Z" fill="black"/>
<path d="M696.672 173.251L712.517 173.251L712.517 157.501L696.672 157.501L696.672 173.251Z" fill="black"/>
<path d="M664.979 173.251L680.825 173.251L680.825 157.501L664.979 157.501L664.979 173.251Z" fill="black"/>
<path d="M633.288 173.251L649.134 173.251L649.134 157.501L633.288 157.501L633.288 173.251Z" fill="black"/>
<path d="M601.595 173.251L617.441 173.251L617.441 157.501L601.595 157.501L601.595 173.251Z" fill="black"/>
<path d="M569.903 173.251L585.748 173.251L585.748 157.501L569.903 157.501L569.903 173.251Z" fill="black"/>
<path d="M538.211 173.251L554.057 173.251L554.057 157.501L538.211 157.501L538.211 173.251Z" fill="black"/>
<path d="M506.519 173.251L522.364 173.251L522.364 157.501L506.519 157.501L506.519 173.251Z" fill="black"/>
<path d="M744.21 157.499L760.056 157.499L760.056 141.75L744.21 141.75L744.21 157.499Z" fill="black"/>
<path d="M712.517 157.499L728.363 157.499L728.363 141.75L712.517 141.75L712.517 157.499Z" fill="black"/>
<path d="M680.826 157.499L696.672 157.499L696.672 141.75L680.826 141.75L680.826 157.499Z" fill="black"/>
<path d="M649.134 157.499L664.979 157.499L664.979 141.75L649.134 141.75L649.134 157.499Z" fill="black"/>
<path d="M617.441 157.499L633.286 157.499L633.286 141.75L617.441 141.75L617.441 157.499Z" fill="black"/>
<path d="M585.75 157.499L601.595 157.499L601.595 141.75L585.75 141.75L585.75 157.499Z" fill="black"/>
<path d="M554.057 157.499L569.903 157.499L569.903 141.75L554.057 141.75L554.057 157.499Z" fill="black"/>
<path d="M522.364 157.499L538.21 157.499L538.21 141.75L522.364 141.75L522.364 157.499Z" fill="black"/>
<path d="M728.365 141.75L744.21 141.75L744.21 126.001L728.365 126.001L728.365 141.75Z" fill="black"/>
<path d="M696.672 141.75L712.517 141.75L712.517 126.001L696.672 126.001L696.672 141.75Z" fill="black"/>
<path d="M664.979 141.75L680.825 141.75L680.825 126.001L664.979 126.001L664.979 141.75Z" fill="black"/>
<path d="M633.288 141.75L649.134 141.75L649.134 126.001L633.288 126.001L633.288 141.75Z" fill="black"/>
<path d="M601.595 141.75L617.441 141.75L617.441 126.001L601.595 126.001L601.595 141.75Z" fill="black"/>
<path d="M569.903 141.75L585.748 141.75L585.748 126.001L569.903 126.001L569.903 141.75Z" fill="black"/>
<path d="M538.211 141.75L554.057 141.75L554.057 126.001L538.211 126.001L538.211 141.75Z" fill="black"/>
<path d="M506.519 141.75L522.364 141.75L522.364 126.001L506.519 126.001L506.519 141.75Z" fill="black"/>
<path d="M744.21 126.001L760.056 126.001L760.056 110.251L744.21 110.251L744.21 126.001Z" fill="black"/>
<path d="M712.517 126.001L728.363 126.001L728.363 110.251L712.517 110.251L712.517 126.001Z" fill="black"/>
<path d="M680.826 126.001L696.672 126.001L696.672 110.251L680.826 110.251L680.826 126.001Z" fill="black"/>
<path d="M649.134 126.001L664.979 126.001L664.979 110.251L649.134 110.251L649.134 126.001Z" fill="black"/>
<path d="M617.441 126.001L633.286 126.001L633.286 110.251L617.441 110.251L617.441 126.001Z" fill="black"/>
<path d="M585.75 126.001L601.595 126.001L601.595 110.251L585.75 110.251L585.75 126.001Z" fill="black"/>
<path d="M554.057 126.001L569.903 126.001L569.903 110.251L554.057 110.251L554.057 126.001Z" fill="black"/>
<path d="M522.364 126.001L538.21 126.001L538.21 110.251L522.364 110.251L522.364 126.001Z" fill="black"/>
<path d="M728.365 110.249L744.21 110.249L744.21 94.5L728.365 94.5L728.365 110.249Z" fill="black"/>
<path d="M696.672 110.249L712.517 110.249L712.517 94.5L696.672 94.5L696.672 110.249Z" fill="black"/>
<path d="M664.979 110.249L680.825 110.249L680.825 94.5L664.979 94.5L664.979 110.249Z" fill="black"/>
<path d="M633.288 110.249L649.134 110.249L649.134 94.5L633.288 94.5L633.288 110.249Z" fill="black"/>
<path d="M601.595 110.249L617.441 110.249L617.441 94.5L601.595 94.5L601.595 110.249Z" fill="black"/>
<path d="M569.903 110.249L585.748 110.249L585.748 94.5L569.903 94.5L569.903 110.249Z" fill="black"/>
<path d="M538.211 110.249L554.057 110.249L554.057 94.5L538.211 94.5L538.211 110.249Z" fill="black"/>
<path d="M506.519 110.249L522.364 110.249L522.364 94.5L506.519 94.5L506.519 110.249Z" fill="black"/>
<path d="M744.21 94.5L760.056 94.5L760.056 78.7505L744.21 78.7505L744.21 94.5Z" fill="black"/>
<path d="M712.517 94.5L728.363 94.5L728.363 78.7505L712.517 78.7505L712.517 94.5Z" fill="black"/>
<path d="M680.826 94.5L696.672 94.5L696.672 78.7505L680.826 78.7505L680.826 94.5Z" fill="black"/>
<path d="M649.134 94.5L664.979 94.5L664.979 78.7505L649.134 78.7505L649.134 94.5Z" fill="black"/>
<path d="M617.441 94.5L633.286 94.5L633.286 78.7505L617.441 78.7505L617.441 94.5Z" fill="black"/>
<path d="M585.75 94.5L601.595 94.5L601.595 78.7505L585.75 78.7505L585.75 94.5Z" fill="black"/>
<path d="M554.057 94.5L569.903 94.5L569.903 78.7505L554.057 78.7505L554.057 94.5Z" fill="black"/>
<path d="M522.364 94.5L538.21 94.5L538.21 78.7505L522.364 78.7505L522.364 94.5Z" fill="black"/>
<path d="M728.365 78.7505L744.21 78.7505L744.21 63.0011L728.365 63.0011L728.365 78.7505Z" fill="black"/>
<path d="M696.672 78.7505L712.517 78.7505L712.517 63.0011L696.672 63.0011L696.672 78.7505Z" fill="black"/>
<path d="M664.979 78.7505L680.825 78.7505L680.825 63.0011L664.979 63.0011L664.979 78.7505Z" fill="black"/>
<path d="M633.288 78.7505L649.134 78.7505L649.134 63.0011L633.288 63.0011L633.288 78.7505Z" fill="black"/>
<path d="M601.595 78.7505L617.441 78.7505L617.441 63.0011L601.595 63.0011L601.595 78.7505Z" fill="black"/>
<path d="M569.903 78.7505L585.748 78.7505L585.748 63.0011L569.903 63.0011L569.903 78.7505Z" fill="black"/>
<path d="M538.211 78.7505L554.057 78.7505L554.057 63.0011L538.211 63.0011L538.211 78.7505Z" fill="black"/>
<path d="M506.519 78.7505L522.364 78.7505L522.364 63.0011L506.519 63.0011L506.519 78.7505Z" fill="black"/>
<path d="M744.21 62.9994L760.056 62.9994L760.056 47.25L744.21 47.25L744.21 62.9994Z" fill="black"/>
<path d="M712.517 62.9994L728.363 62.9994L728.363 47.25L712.517 47.25L712.517 62.9994Z" fill="black"/>
<path d="M680.826 62.9994L696.672 62.9994L696.672 47.25L680.826 47.25L680.826 62.9994Z" fill="black"/>
<path d="M649.134 62.9994L664.979 62.9994L664.979 47.25L649.134 47.25L649.134 62.9994Z" fill="black"/>
<path d="M617.441 62.9994L633.286 62.9994L633.286 47.25L617.441 47.25L617.441 62.9994Z" fill="black"/>
<path d="M585.75 62.9994L601.595 62.9994L601.595 47.25L585.75 47.25L585.75 62.9994Z" fill="black"/>
<path d="M554.057 62.9994L569.903 62.9994L569.903 47.25L554.057 47.25L554.057 62.9994Z" fill="black"/>
<path d="M522.364 62.9994L538.21 62.9994L538.21 47.25L522.364 47.25L522.364 62.9994Z" fill="black"/>
<path d="M728.365 47.25L744.21 47.25L744.21 31.5005L728.365 31.5005L728.365 47.25Z" fill="black"/>
<path d="M696.672 47.25L712.517 47.25L712.517 31.5005L696.672 31.5005L696.672 47.25Z" fill="black"/>
<path d="M664.979 47.25L680.825 47.25L680.825 31.5005L664.979 31.5005L664.979 47.25Z" fill="black"/>
<path d="M633.288 47.25L649.134 47.25L649.134 31.5005L633.288 31.5005L633.288 47.25Z" fill="black"/>
<path d="M601.595 47.25L617.441 47.25L617.441 31.5005L601.595 31.5005L601.595 47.25Z" fill="black"/>
<path d="M569.903 47.25L585.748 47.25L585.748 31.5005L569.903 31.5005L569.903 47.25Z" fill="black"/>
<path d="M538.211 47.25L554.057 47.25L554.057 31.5005L538.212 31.5005L538.211 47.25Z" fill="black"/>
<path d="M506.519 47.25L522.364 47.25L522.364 31.5005L506.519 31.5005L506.519 47.25Z" fill="black"/>
<path d="M744.21 31.5005L760.056 31.5005L760.056 15.7511L744.21 15.7511L744.21 31.5005Z" fill="black"/>
<path d="M712.517 31.5005L728.363 31.5005L728.363 15.7511L712.517 15.7511L712.517 31.5005Z" fill="black"/>
<path d="M680.826 31.5005L696.672 31.5005L696.672 15.7511L680.826 15.7511L680.826 31.5005Z" fill="black"/>
<path d="M649.134 31.5005L664.979 31.5005L664.979 15.7511L649.134 15.7511L649.134 31.5005Z" fill="black"/>
<path d="M617.441 31.5005L633.286 31.5005L633.286 15.7511L617.441 15.7511L617.441 31.5005Z" fill="black"/>
<path d="M585.75 31.5005L601.595 31.5005L601.595 15.7511L585.75 15.7511L585.75 31.5005Z" fill="black"/>
<path d="M554.057 31.5005L569.903 31.5005L569.903 15.7511L554.057 15.7511L554.057 31.5005Z" fill="black"/>
<path d="M522.364 31.5005L538.21 31.5005L538.21 15.7511L522.364 15.7511L522.364 31.5005Z" fill="black"/>
<path d="M728.365 15.7494L744.21 15.7494L744.21 -8.30771e-06L728.365 -9.69393e-06L728.365 15.7494Z" fill="black"/>
<path d="M696.672 15.7494L712.517 15.7494L712.517 -1.10803e-05L696.672 -1.24665e-05L696.672 15.7494Z" fill="black"/>
<path d="M664.979 15.7494L680.825 15.7494L680.825 -1.38529e-05L664.979 -1.52391e-05L664.979 15.7494Z" fill="black"/>
<path d="M633.288 15.7494L649.134 15.7494L649.134 -1.66253e-05L633.288 -1.80116e-05L633.288 15.7494Z" fill="black"/>
<path d="M601.595 15.7494L617.441 15.7494L617.441 -1.93979e-05L601.595 -2.07841e-05L601.595 15.7494Z" fill="black"/>
<path d="M569.903 15.7494L585.748 15.7494L585.748 -2.21705e-05L569.903 -2.35567e-05L569.903 15.7494Z" fill="black"/>
<path d="M538.212 15.7494L554.057 15.7494L554.057 -2.4943e-05L538.212 -2.63292e-05L538.212 15.7494Z" fill="black"/>
<path d="M506.519 15.7494L522.364 15.7494L522.364 -2.77155e-05L506.519 -2.91018e-05L506.519 15.7494Z" fill="black"/>
<path d="M253.037 189L506.519 189L506.519 -2.91018e-05L253.037 -5.12772e-05L253.037 189Z" fill="white"/>
<path d="M490.673 189L506.519 189L506.519 173.251L490.673 173.251L490.673 189Z" fill="black"/>
<path d="M458.981 189L474.826 189L474.826 173.251L458.981 173.251L458.981 189Z" fill="black"/>
<path d="M427.289 189L443.135 189L443.135 173.251L427.289 173.251L427.289 189Z" fill="black"/>
<path d="M395.597 189L411.442 189L411.442 173.25L395.597 173.25L395.597 189Z" fill="black"/>
<path d="M363.904 189L379.75 189L379.75 173.25L363.904 173.25L363.904 189Z" fill="black"/>
<path d="M332.213 189L348.059 189L348.059 173.25L332.213 173.25L332.213 189Z" fill="black"/>
<path d="M300.52 189L316.366 189L316.366 173.25L300.52 173.25L300.52 189Z" fill="black"/>
<path d="M268.828 189L284.673 189L284.673 173.25L268.828 173.25L268.828 189Z" fill="black"/>
<path d="M474.828 173.251L490.673 173.251L490.673 157.501L474.828 157.501L474.828 173.251Z" fill="black"/>
<path d="M443.135 173.251L458.981 173.251L458.981 157.501L443.135 157.501L443.135 173.251Z" fill="black"/>
<path d="M411.442 173.25L427.288 173.251L427.288 157.501L411.442 157.501L411.442 173.25Z" fill="black"/>
<path d="M379.751 173.25L395.597 173.25L395.597 157.501L379.751 157.501L379.751 173.25Z" fill="black"/>
<path d="M348.059 173.25L363.904 173.25L363.904 157.501L348.059 157.501L348.059 173.25Z" fill="black"/>
<path d="M316.366 173.25L332.211 173.25L332.211 157.501L316.366 157.501L316.366 173.25Z" fill="black"/>
<path d="M284.675 173.25L300.52 173.25L300.52 157.501L284.675 157.501L284.675 173.25Z" fill="black"/>
<path d="M252.982 173.25L268.828 173.25L268.828 157.501L252.982 157.501L252.982 173.25Z" fill="black"/>
<path d="M490.673 157.499L506.519 157.499L506.519 141.75L490.673 141.75L490.673 157.499Z" fill="black"/>
<path d="M458.981 157.499L474.826 157.499L474.826 141.75L458.981 141.75L458.981 157.499Z" fill="black"/>
<path d="M427.289 157.499L443.135 157.499L443.135 141.75L427.289 141.75L427.289 157.499Z" fill="black"/>
<path d="M395.597 157.499L411.442 157.499L411.442 141.75L395.597 141.75L395.597 157.499Z" fill="black"/>
<path d="M363.904 157.499L379.75 157.499L379.75 141.75L363.904 141.75L363.904 157.499Z" fill="black"/>
<path d="M332.213 157.499L348.059 157.499L348.059 141.75L332.213 141.75L332.213 157.499Z" fill="black"/>
<path d="M300.52 157.499L316.366 157.499L316.366 141.75L300.52 141.75L300.52 157.499Z" fill="black"/>
<path d="M268.828 157.499L284.673 157.499L284.673 141.75L268.828 141.75L268.828 157.499Z" fill="black"/>
<path d="M474.828 141.75L490.673 141.75L490.673 126.001L474.828 126.001L474.828 141.75Z" fill="black"/>
<path d="M443.135 141.75L458.981 141.75L458.981 126.001L443.135 126.001L443.135 141.75Z" fill="black"/>
<path d="M411.442 141.75L427.288 141.75L427.288 126.001L411.442 126.001L411.442 141.75Z" fill="black"/>
<path d="M379.751 141.75L395.597 141.75L395.597 126.001L379.751 126.001L379.751 141.75Z" fill="black"/>
<path d="M348.059 141.75L363.904 141.75L363.904 126.001L348.059 126.001L348.059 141.75Z" fill="black"/>
<path d="M316.366 141.75L332.211 141.75L332.211 126.001L316.366 126L316.366 141.75Z" fill="black"/>
<path d="M284.675 141.75L300.52 141.75L300.52 126L284.675 126L284.675 141.75Z" fill="black"/>
<path d="M252.982 141.75L268.828 141.75L268.828 126L252.982 126L252.982 141.75Z" fill="black"/>
<path d="M490.673 126.001L506.519 126.001L506.519 110.251L490.673 110.251L490.673 126.001Z" fill="black"/>
<path d="M458.981 126.001L474.826 126.001L474.826 110.251L458.981 110.251L458.981 126.001Z" fill="black"/>
<path d="M427.289 126.001L443.135 126.001L443.135 110.251L427.289 110.251L427.289 126.001Z" fill="black"/>
<path d="M395.597 126.001L411.442 126.001L411.442 110.251L395.597 110.251L395.597 126.001Z" fill="black"/>
<path d="M363.904 126.001L379.75 126.001L379.75 110.251L363.904 110.251L363.904 126.001Z" fill="black"/>
<path d="M332.213 126.001L348.059 126.001L348.059 110.251L332.213 110.251L332.213 126.001Z" fill="black"/>
<path d="M300.52 126L316.366 126L316.366 110.251L300.52 110.251L300.52 126Z" fill="black"/>
<path d="M268.828 126L284.673 126L284.673 110.251L268.828 110.251L268.828 126Z" fill="black"/>
<path d="M474.828 110.249L490.673 110.249L490.673 94.5L474.828 94.5L474.828 110.249Z" fill="black"/>
<path d="M443.135 110.249L458.981 110.249L458.981 94.5L443.135 94.5L443.135 110.249Z" fill="black"/>
<path d="M411.442 110.249L427.288 110.249L427.288 94.5L411.442 94.5L411.442 110.249Z" fill="black"/>
<path d="M379.751 110.249L395.597 110.249L395.597 94.5L379.751 94.5L379.751 110.249Z" fill="black"/>
<path d="M348.059 110.249L363.904 110.249L363.904 94.5L348.059 94.4999L348.059 110.249Z" fill="black"/>
<path d="M316.366 110.249L332.211 110.249L332.211 94.4999L316.366 94.4999L316.366 110.249Z" fill="black"/>
<path d="M284.675 110.249L300.52 110.249L300.52 94.4999L284.675 94.4999L284.675 110.249Z" fill="black"/>
<path d="M252.982 110.249L268.828 110.249L268.828 94.4999L252.982 94.4999L252.982 110.249Z" fill="black"/>
<path d="M490.673 94.5L506.519 94.5L506.519 78.7505L490.673 78.7505L490.673 94.5Z" fill="black"/>
<path d="M458.981 94.5L474.826 94.5L474.826 78.7505L458.981 78.7505L458.981 94.5Z" fill="black"/>
<path d="M427.289 94.5L443.135 94.5L443.135 78.7505L427.289 78.7505L427.289 94.5Z" fill="black"/>
<path d="M395.597 94.5L411.442 94.5L411.442 78.7505L395.597 78.7505L395.597 94.5Z" fill="black"/>
<path d="M363.904 94.5L379.75 94.5L379.75 78.7505L363.904 78.7505L363.904 94.5Z" fill="black"/>
<path d="M332.213 94.4999L348.059 94.4999L348.059 78.7505L332.213 78.7505L332.213 94.4999Z" fill="black"/>
<path d="M300.52 94.4999L316.366 94.4999L316.366 78.7505L300.52 78.7505L300.52 94.4999Z" fill="black"/>
<path d="M268.828 94.4999L284.673 94.4999L284.673 78.7505L268.828 78.7505L268.828 94.4999Z" fill="black"/>
<path d="M474.828 78.7505L490.673 78.7505L490.673 63.0011L474.828 63.0011L474.828 78.7505Z" fill="black"/>
<path d="M443.135 78.7505L458.981 78.7505L458.981 63.0011L443.135 63.0011L443.135 78.7505Z" fill="black"/>
<path d="M411.442 78.7505L427.288 78.7505L427.288 63.0011L411.442 63.0011L411.442 78.7505Z" fill="black"/>
<path d="M379.751 78.7505L395.597 78.7505L395.597 63.0011L379.751 63.0011L379.751 78.7505Z" fill="black"/>
<path d="M348.059 78.7505L363.904 78.7505L363.904 63.0011L348.059 63.0011L348.059 78.7505Z" fill="black"/>
<path d="M316.366 78.7505L332.211 78.7505L332.211 63.0011L316.366 63.0011L316.366 78.7505Z" fill="black"/>
<path d="M284.675 78.7505L300.52 78.7505L300.52 63.0011L284.675 63.0011L284.675 78.7505Z" fill="black"/>
<path d="M252.982 78.7505L268.828 78.7505L268.828 63.0011L252.982 63.0011L252.982 78.7505Z" fill="black"/>
<path d="M490.673 62.9994L506.519 62.9994L506.519 47.25L490.673 47.25L490.673 62.9994Z" fill="black"/>
<path d="M458.981 62.9994L474.826 62.9994L474.826 47.25L458.981 47.25L458.981 62.9994Z" fill="black"/>
<path d="M427.29 62.9994L443.135 62.9994L443.135 47.25L427.29 47.2499L427.29 62.9994Z" fill="black"/>
<path d="M395.597 62.9994L411.442 62.9994L411.442 47.2499L395.597 47.2499L395.597 62.9994Z" fill="black"/>
<path d="M363.904 62.9994L379.75 62.9994L379.75 47.2499L363.904 47.2499L363.904 62.9994Z" fill="black"/>
<path d="M332.213 62.9994L348.059 62.9994L348.059 47.2499L332.213 47.2499L332.213 62.9994Z" fill="black"/>
<path d="M300.52 62.9994L316.366 62.9994L316.366 47.2499L300.52 47.2499L300.52 62.9994Z" fill="black"/>
<path d="M268.828 62.9994L284.673 62.9994L284.673 47.2499L268.828 47.2499L268.828 62.9994Z" fill="black"/>
<path d="M474.828 47.25L490.673 47.25L490.673 31.5005L474.828 31.5005L474.828 47.25Z" fill="black"/>
<path d="M443.135 47.25L458.981 47.25L458.981 31.5005L443.135 31.5005L443.135 47.25Z" fill="black"/>
<path d="M411.442 47.2499L427.288 47.2499L427.288 31.5005L411.442 31.5005L411.442 47.2499Z" fill="black"/>
<path d="M379.751 47.2499L395.597 47.2499L395.597 31.5005L379.751 31.5005L379.751 47.2499Z" fill="black"/>
<path d="M348.059 47.2499L363.904 47.2499L363.904 31.5005L348.059 31.5005L348.059 47.2499Z" fill="black"/>
<path d="M316.366 47.2499L332.211 47.2499L332.211 31.5005L316.366 31.5005L316.366 47.2499Z" fill="black"/>
<path d="M284.675 47.2499L300.52 47.2499L300.52 31.5005L284.675 31.5005L284.675 47.2499Z" fill="black"/>
<path d="M252.982 47.2499L268.828 47.2499L268.828 31.5005L252.982 31.5005L252.982 47.2499Z" fill="black"/>
<path d="M490.673 31.5005L506.519 31.5005L506.519 15.7511L490.673 15.7511L490.673 31.5005Z" fill="black"/>
<path d="M458.981 31.5005L474.826 31.5005L474.826 15.7511L458.981 15.7511L458.981 31.5005Z" fill="black"/>
<path d="M427.29 31.5005L443.135 31.5005L443.135 15.7511L427.29 15.7511L427.29 31.5005Z" fill="black"/>
<path d="M395.597 31.5005L411.442 31.5005L411.442 15.7511L395.597 15.7511L395.597 31.5005Z" fill="black"/>
<path d="M363.904 31.5005L379.75 31.5005L379.75 15.7511L363.904 15.7511L363.904 31.5005Z" fill="black"/>
<path d="M332.213 31.5005L348.059 31.5005L348.059 15.7511L332.213 15.7511L332.213 31.5005Z" fill="black"/>
<path d="M300.52 31.5005L316.366 31.5005L316.366 15.7511L300.52 15.7511L300.52 31.5005Z" fill="black"/>
<path d="M268.828 31.5005L284.673 31.5005L284.673 15.7511L268.828 15.751L268.828 31.5005Z" fill="black"/>
<path d="M474.828 15.7494L490.673 15.7494L490.673 -3.0488e-05L474.828 -3.18742e-05L474.828 15.7494Z" fill="black"/>
<path d="M443.135 15.7494L458.981 15.7494L458.981 -3.32606e-05L443.135 -3.46468e-05L443.135 15.7494Z" fill="black"/>
<path d="M411.442 15.7494L427.288 15.7494L427.288 -3.60332e-05L411.442 -3.74194e-05L411.442 15.7494Z" fill="black"/>
<path d="M379.751 15.7494L395.597 15.7494L395.597 -3.88056e-05L379.751 -4.01918e-05L379.751 15.7494Z" fill="black"/>
<path d="M348.059 15.7494L363.904 15.7494L363.904 -4.15782e-05L348.059 -4.29644e-05L348.059 15.7494Z" fill="black"/>
<path d="M316.366 15.7494L332.211 15.7494L332.211 -4.43508e-05L316.366 -4.5737e-05L316.366 15.7494Z" fill="black"/>
<path d="M284.675 15.7494L300.52 15.7494L300.52 -4.71232e-05L284.675 -4.85095e-05L284.675 15.7494Z" fill="black"/>
<path d="M252.982 15.7494L268.828 15.7494L268.828 -4.98958e-05L252.982 -5.1282e-05L252.982 15.7494Z" fill="black"/>
<path d="M0.0549316 189L253.537 189L253.537 -5.12335e-05L0.0549482 -7.3409e-05L0.0549316 189Z" fill="white"/>
<path d="M237.691 189L253.537 189L253.537 173.25L237.691 173.25L237.691 189Z" fill="black"/>
<path d="M205.999 189L221.844 189L221.844 173.25L205.999 173.25L205.999 189Z" fill="black"/>
<path d="M174.308 189L190.153 189L190.153 173.25L174.308 173.25L174.308 189Z" fill="black"/>
<path d="M142.615 189L158.46 189L158.46 173.25L142.615 173.25L142.615 189Z" fill="black"/>
<path d="M110.922 189L126.768 189L126.768 173.25L110.922 173.25L110.922 189Z" fill="black"/>
<path d="M79.231 189L95.0765 189L95.0765 173.25L79.231 173.25L79.231 189Z" fill="black"/>
<path d="M47.5383 189L63.3839 189L63.3839 173.25L47.5383 173.25L47.5383 189Z" fill="black"/>
<path d="M15.8456 189L31.6911 189L31.6911 173.25L15.8456 173.25L15.8456 189Z" fill="black"/>
<path d="M221.846 173.25L237.691 173.25L237.691 157.501L221.846 157.501L221.846 173.25Z" fill="black"/>
<path d="M190.153 173.25L205.999 173.25L205.999 157.501L190.153 157.501L190.153 173.25Z" fill="black"/>
<path d="M158.46 173.25L174.306 173.25L174.306 157.501L158.46 157.501L158.46 173.25Z" fill="black"/>
<path d="M126.769 173.25L142.615 173.25L142.615 157.501L126.769 157.501L126.769 173.25Z" fill="black"/>
<path d="M95.0765 173.25L110.922 173.25L110.922 157.501L95.0765 157.501L95.0765 173.25Z" fill="black"/>
<path d="M63.3839 173.25L79.2294 173.25L79.2294 157.501L63.3839 157.501L63.3839 173.25Z" fill="black"/>
<path d="M31.6928 173.25L47.5383 173.25L47.5383 157.501L31.6928 157.501L31.6928 173.25Z" fill="black"/>
<path d="M6.24111e-05 173.25L15.8456 173.25L15.8456 157.501L6.3787e-05 157.501L6.24111e-05 173.25Z" fill="black"/>
<path d="M237.691 157.499L253.537 157.499L253.537 141.75L237.691 141.75L237.691 157.499Z" fill="black"/>
<path d="M205.999 157.499L221.844 157.499L221.844 141.75L205.999 141.75L205.999 157.499Z" fill="black"/>
<path d="M174.308 157.499L190.153 157.499L190.153 141.75L174.308 141.75L174.308 157.499Z" fill="black"/>
<path d="M142.615 157.499L158.46 157.499L158.46 141.75L142.615 141.75L142.615 157.499Z" fill="black"/>
<path d="M110.922 157.499L126.768 157.499L126.768 141.75L110.922 141.75L110.922 157.499Z" fill="black"/>
<path d="M79.231 157.499L95.0765 157.499L95.0765 141.75L79.231 141.75L79.231 157.499Z" fill="black"/>
<path d="M47.5383 157.499L63.3839 157.499L63.3839 141.75L47.5383 141.75L47.5383 157.499Z" fill="black"/>
<path d="M15.8456 157.499L31.6911 157.499L31.6911 141.75L15.8456 141.75L15.8456 157.499Z" fill="black"/>
<path d="M221.846 141.75L237.691 141.75L237.691 126L221.846 126L221.846 141.75Z" fill="black"/>
<path d="M190.153 141.75L205.999 141.75L205.999 126L190.153 126L190.153 141.75Z" fill="black"/>
<path d="M158.46 141.75L174.306 141.75L174.306 126L158.46 126L158.46 141.75Z" fill="black"/>
<path d="M126.769 141.75L142.615 141.75L142.615 126L126.769 126L126.769 141.75Z" fill="black"/>
<path d="M95.0765 141.75L110.922 141.75L110.922 126L95.0765 126L95.0765 141.75Z" fill="black"/>
<path d="M63.3839 141.75L79.2294 141.75L79.2294 126L63.3839 126L63.3839 141.75Z" fill="black"/>
<path d="M31.6928 141.75L47.5383 141.75L47.5383 126L31.6928 126L31.6928 141.75Z" fill="black"/>
<path d="M6.5163e-05 141.75L15.8456 141.75L15.8456 126L6.65389e-05 126L6.5163e-05 141.75Z" fill="black"/>
<path d="M237.691 126L253.537 126L253.537 110.251L237.691 110.251L237.691 126Z" fill="black"/>
<path d="M205.999 126L221.844 126L221.844 110.251L205.999 110.251L205.999 126Z" fill="black"/>
<path d="M174.308 126L190.153 126L190.153 110.251L174.308 110.251L174.308 126Z" fill="black"/>
<path d="M142.615 126L158.46 126L158.46 110.251L142.615 110.251L142.615 126Z" fill="black"/>
<path d="M110.922 126L126.768 126L126.768 110.251L110.922 110.251L110.922 126Z" fill="black"/>
<path d="M79.231 126L95.0765 126L95.0765 110.251L79.231 110.251L79.231 126Z" fill="black"/>
<path d="M47.5383 126L63.3839 126L63.3839 110.251L47.5383 110.251L47.5383 126Z" fill="black"/>
<path d="M15.8456 126L31.6911 126L31.6911 110.251L15.8456 110.251L15.8456 126Z" fill="black"/>
<path d="M221.846 110.249L237.691 110.249L237.691 94.4999L221.846 94.4999L221.846 110.249Z" fill="black"/>
<path d="M190.153 110.249L205.999 110.249L205.999 94.4999L190.153 94.4999L190.153 110.249Z" fill="black"/>
<path d="M158.46 110.249L174.306 110.249L174.306 94.4999L158.46 94.4999L158.46 110.249Z" fill="black"/>
<path d="M126.769 110.249L142.615 110.249L142.615 94.4999L126.769 94.4999L126.769 110.249Z" fill="black"/>
<path d="M95.0765 110.249L110.922 110.249L110.922 94.4999L95.0765 94.4999L95.0765 110.249Z" fill="black"/>
<path d="M63.3839 110.249L79.2294 110.249L79.2294 94.4999L63.3839 94.4999L63.3839 110.249Z" fill="black"/>
<path d="M31.6928 110.249L47.5383 110.249L47.5383 94.4999L31.6928 94.4999L31.6928 110.249Z" fill="black"/>
<path d="M6.7915e-05 110.249L15.8456 110.249L15.8456 94.4999L6.92909e-05 94.4999L6.7915e-05 110.249Z" fill="black"/>
<path d="M237.691 94.4999L253.537 94.4999L253.537 78.7505L237.691 78.7505L237.691 94.4999Z" fill="black"/>
<path d="M205.999 94.4999L221.844 94.4999L221.844 78.7505L205.999 78.7505L205.999 94.4999Z" fill="black"/>
<path d="M174.308 94.4999L190.153 94.4999L190.153 78.7505L174.308 78.7505L174.308 94.4999Z" fill="black"/>
<path d="M142.615 94.4999L158.46 94.4999L158.46 78.7505L142.615 78.7505L142.615 94.4999Z" fill="black"/>
<path d="M110.922 94.4999L126.768 94.4999L126.768 78.7505L110.922 78.7505L110.922 94.4999Z" fill="black"/>
<path d="M79.231 94.4999L95.0765 94.4999L95.0765 78.7505L79.231 78.7505L79.231 94.4999Z" fill="black"/>
<path d="M47.5383 94.4999L63.3839 94.4999L63.3839 78.7505L47.5383 78.7505L47.5383 94.4999Z" fill="black"/>
<path d="M15.8456 94.4999L31.6911 94.4999L31.6911 78.7505L15.8456 78.7505L15.8456 94.4999Z" fill="black"/>
<path d="M221.846 78.7505L237.691 78.7505L237.691 63.0011L221.846 63.0011L221.846 78.7505Z" fill="black"/>
<path d="M190.153 78.7505L205.999 78.7505L205.999 63.0011L190.153 63.001L190.153 78.7505Z" fill="black"/>
<path d="M158.46 78.7505L174.306 78.7505L174.306 63.001L158.46 63.001L158.46 78.7505Z" fill="black"/>
<path d="M126.769 78.7505L142.615 78.7505L142.615 63.001L126.769 63.001L126.769 78.7505Z" fill="black"/>
<path d="M95.0765 78.7505L110.922 78.7505L110.922 63.001L95.0765 63.001L95.0765 78.7505Z" fill="black"/>
<path d="M63.3839 78.7505L79.2294 78.7505L79.2294 63.001L63.3839 63.001L63.3839 78.7505Z" fill="black"/>
<path d="M31.6928 78.7505L47.5383 78.7505L47.5383 63.001L31.6928 63.001L31.6928 78.7505Z" fill="black"/>
<path d="M7.06668e-05 78.7505L15.8456 78.7505L15.8456 63.001L7.20427e-05 63.001L7.06668e-05 78.7505Z" fill="black"/>
<path d="M237.691 62.9994L253.537 62.9994L253.537 47.2499L237.691 47.2499L237.691 62.9994Z" fill="black"/>
<path d="M205.999 62.9994L221.844 62.9994L221.844 47.2499L205.999 47.2499L205.999 62.9994Z" fill="black"/>
<path d="M174.308 62.9994L190.153 62.9994L190.153 47.2499L174.308 47.2499L174.308 62.9994Z" fill="black"/>
<path d="M142.615 62.9994L158.46 62.9994L158.46 47.2499L142.615 47.2499L142.615 62.9994Z" fill="black"/>
<path d="M110.922 62.9994L126.768 62.9994L126.768 47.2499L110.922 47.2499L110.922 62.9994Z" fill="black"/>
<path d="M79.231 62.9994L95.0765 62.9994L95.0766 47.2499L79.231 47.2499L79.231 62.9994Z" fill="black"/>
<path d="M47.5383 62.9994L63.3839 62.9994L63.3839 47.2499L47.5383 47.2499L47.5383 62.9994Z" fill="black"/>
<path d="M15.8456 62.9994L31.6911 62.9994L31.6911 47.2499L15.8456 47.2499L15.8456 62.9994Z" fill="black"/>
<path d="M221.846 47.2499L237.691 47.2499L237.691 31.5005L221.846 31.5005L221.846 47.2499Z" fill="black"/>
<path d="M190.153 47.2499L205.999 47.2499L205.999 31.5005L190.153 31.5005L190.153 47.2499Z" fill="black"/>
<path d="M158.46 47.2499L174.306 47.2499L174.306 31.5005L158.46 31.5005L158.46 47.2499Z" fill="black"/>
<path d="M126.769 47.2499L142.615 47.2499L142.615 31.5005L126.769 31.5005L126.769 47.2499Z" fill="black"/>
<path d="M95.0766 47.2499L110.922 47.2499L110.922 31.5005L95.0766 31.5005L95.0766 47.2499Z" fill="black"/>
<path d="M63.3839 47.2499L79.2294 47.2499L79.2294 31.5005L63.3839 31.5005L63.3839 47.2499Z" fill="black"/>
<path d="M31.6928 47.2499L47.5383 47.2499L47.5383 31.5005L31.6928 31.5005L31.6928 47.2499Z" fill="black"/>
<path d="M7.34187e-05 47.2499L15.8456 47.2499L15.8456 31.5005L7.47946e-05 31.5005L7.34187e-05 47.2499Z" fill="black"/>
<path d="M237.691 31.5005L253.537 31.5005L253.537 15.751L237.691 15.751L237.691 31.5005Z" fill="black"/>
<path d="M205.999 31.5005L221.844 31.5005L221.844 15.751L205.999 15.751L205.999 31.5005Z" fill="black"/>
<path d="M174.308 31.5005L190.153 31.5005L190.153 15.751L174.308 15.751L174.308 31.5005Z" fill="black"/>
<path d="M142.615 31.5005L158.46 31.5005L158.46 15.751L142.615 15.751L142.615 31.5005Z" fill="black"/>
<path d="M110.922 31.5005L126.768 31.5005L126.768 15.751L110.922 15.751L110.922 31.5005Z" fill="black"/>
<path d="M79.231 31.5005L95.0766 31.5005L95.0766 15.751L79.231 15.751L79.231 31.5005Z" fill="black"/>
<path d="M47.5383 31.5005L63.3839 31.5005L63.3839 15.751L47.5383 15.751L47.5383 31.5005Z" fill="black"/>
<path d="M15.8456 31.5005L31.6911 31.5005L31.6911 15.751L15.8456 15.751L15.8456 31.5005Z" fill="black"/>
<path d="M221.846 15.7494L237.691 15.7494L237.691 -5.26197e-05L221.846 -5.4006e-05L221.846 15.7494Z" fill="black"/>
<path d="M190.153 15.7494L205.999 15.7494L205.999 -5.53923e-05L190.153 -5.67785e-05L190.153 15.7494Z" fill="black"/>
<path d="M158.46 15.7494L174.306 15.7494L174.306 -5.81649e-05L158.46 -5.95511e-05L158.46 15.7494Z" fill="black"/>
<path d="M126.769 15.7494L142.615 15.7494L142.615 -6.09374e-05L126.769 -6.23236e-05L126.769 15.7494Z" fill="black"/>
<path d="M95.0766 15.7494L110.922 15.7494L110.922 -6.37099e-05L95.0766 -6.50962e-05L95.0766 15.7494Z" fill="black"/>
<path d="M63.3839 15.7494L79.2294 15.7494L79.2294 -6.64825e-05L63.3839 -6.78688e-05L63.3839 15.7494Z" fill="black"/>
<path d="M31.6928 15.7494L47.5383 15.7494L47.5383 -6.9255e-05L31.6928 -7.06412e-05L31.6928 15.7494Z" fill="black"/>
<path d="M7.61707e-05 15.7494L15.8456 15.7494L15.8456 -7.20276e-05L7.75466e-05 -7.34138e-05L7.61707e-05 15.7494Z" fill="black"/>
</svg>
